# xmcd
# 
# Track frame offsets:
#     150
#     17377
#     38066
#     54575
#     70868
#     89187
#     101237
#     115763
#     134327
#     149675
#     168118
# 
# Disc length: 2432
# 
# Revision: 3
# Processed by: cddbd v1.5.2PL0 Copyright (c) Steve Scherf et al.
# Submitted via: fre:ac v1.0.31
# 
DISCID=99097e0b
DTITLE=Cake - Showroom of Compassion
DYEAR=2011
DGENRE=Alternative
TTITLE0=Federal Funding
TTITLE1=Long Time
TTITLE2=Got To Move
TTITLE3=What's Now is Now
TTITLE4=Mustache Man (Wasted)
TTITLE5=Teenage Pregnancy
TTITLE6=Sick Of You
TTITLE7=Easy to Crash
TTITLE8=Bound Away
TTITLE9=The Winter
TTITLE10=Italian Guy
EXTD=
EXTT0=
EXTT1=
EXTT2=
EXTT3=
EXTT4=
EXTT5=
EXTT6=
EXTT7=
EXTT8=
EXTT9=
EXTT10=
PLAYORDER=
